<?xml version="1.0" standalone="no"?>
<!DOCTYPE svg PUBLIC "-//W3C//DTD SVG 20010904//EN"
 "http://www.w3.org/TR/2001/REC-SVG-20010904/DTD/svg10.dtd">
<svg version="1.0" xmlns="http://www.w3.org/2000/svg"
 width="50.000000pt" height="50.000000pt" viewBox="0 0 320.000000 320.000000"
 preserveAspectRatio="xMidYMid meet">

<g transform="translate(0.000000,320.000000) scale(0.100000,-0.100000)"
fill="#000000" stroke="none">
<path d="M2241 2751 c-17 -16 -31 -37 -31 -48 0 -13 5 -10 19 13 12 20 34 37
56 44 31 10 41 9 75 -8 46 -22 49 -21 18 8 -34 31 -98 27 -137 -9z"/>
<path d="M2230 2674 c0 -8 -4 -12 -10 -9 -6 4 -7 -6 -4 -24 4 -19 1 -37 -6
-46 -11 -13 -10 -14 4 -9 31 12 16 -9 -68 -96 -46 -48 -91 -101 -100 -119 -26
-50 -60 -39 -71 24 -4 22 -12 47 -17 55 -7 11 -8 10 -3 -5 4 -11 11 -72 15
-135 4 -63 8 -103 8 -88 2 34 22 47 23 16 1 -23 1 -23 9 2 23 75 80 160 156
238 75 74 86 82 121 82 47 0 106 34 101 58 -2 11 -18 19 -47 24 -24 4 -54 17
-66 28 -25 24 -45 26 -45 4z"/>
<path d="M1867 2585 c-4 -9 -1 -12 7 -9 7 3 32 -16 56 -43 24 -27 37 -37 30
-23 -28 56 -84 101 -93 75z"/>
<path d="M1905 2518 c22 -25 42 -44 44 -42 5 5 -48 67 -67 78 -9 5 1 -11 23
-36z"/>
<path d="M1992 2183 c-1 -12 -5 -28 -8 -37 -4 -10 7 -21 33 -36 l38 -21 -34 7
c-29 5 -33 4 -28 -10 4 -9 1 -17 -6 -17 -7 -1 2 -4 18 -8 17 -4 33 -2 37 3 3
5 20 11 37 12 16 1 44 12 61 24 43 31 65 22 162 -63 46 -39 74 -61 63 -47 -36
46 -134 129 -161 136 -17 4 -42 -1 -73 -16 l-48 -22 -41 21 c-35 18 -41 26
-45 58 -2 21 -4 28 -5 16z"/>
<path d="M1475 2180 l-100 -7 105 0 105 0 3 -57 c2 -34 -1 -56 -8 -56 -5 0
-10 20 -10 45 0 49 -16 62 -23 18 l-4 -28 -2 26 c-1 18 -8 29 -23 33 -37 9
-37 8 -31 -43 5 -42 3 -50 -13 -54 -11 -3 -5 -5 16 -7 19 -1 57 -3 83 -5 l48
-4 -3 72 c-3 83 10 77 -143 67z m49 -105 c3 -8 1 -15 -4 -15 -6 0 -10 7 -10
15 0 8 2 15 4 15 2 0 6 -7 10 -15z"/>
<path d="M1678 2173 c18 -2 45 -2 60 0 15 2 0 4 -33 4 -33 0 -45 -2 -27 -4z"/>
<path d="M1451 2135 c1 -35 17 -79 19 -55 4 28 -2 65 -11 75 -5 5 -9 -2 -8
-20z"/>
<path d="M1650 2115 c4 -25 3 -48 -2 -51 -36 -23 98 -32 255 -17 l57 6 0 33
c0 22 -5 34 -13 34 -9 0 -12 -10 -9 -30 3 -18 0 -30 -7 -30 -6 0 -11 15 -11
34 0 34 -1 35 -47 41 -27 4 -64 10 -83 14 -19 4 -60 9 -91 10 l-56 2 7 -46z
m179 -28 c0 -27 -2 -29 -9 -12 -12 28 -12 57 0 50 6 -3 10 -21 9 -38z m-42
-14 c-3 -10 -5 -4 -5 12 0 17 2 24 5 18 2 -7 2 -21 0 -30z"/>
<path d="M1920 2151 l-35 -7 32 -5 c22 -4 34 -1 37 8 3 7 4 12 3 12 -1 -1 -18
-5 -37 -8z"/>
<path d="M1314 2105 c6 -37 5 -46 -6 -43 -7 3 -14 21 -16 41 -2 20 -8 37 -13
37 -6 0 -9 -18 -7 -42 3 -41 5 -43 37 -46 32 -3 33 -2 26 25 -4 15 -7 36 -7
45 0 10 -4 21 -10 24 -7 5 -8 -8 -4 -41z"/>
<path d="M1345 2133 c4 -10 9 -32 12 -50 3 -19 12 -33 24 -36 25 -7 29 2 19
43 l-8 35 -1 -32 c-1 -37 -16 -45 -18 -10 -3 40 -13 67 -24 67 -7 0 -8 -7 -4
-17z"/>
<path d="M1390 2147 c0 -2 7 -18 16 -36 9 -17 17 -37 18 -44 1 -11 13 -21 18
-14 1 1 -4 23 -10 50 -8 29 -18 47 -27 47 -8 0 -15 -2 -15 -3z"/>
<path d="M909 2111 c-55 -36 -149 -126 -149 -143 0 -7 36 22 80 64 92 89 125
102 201 75 65 -24 72 -20 19 8 -60 32 -97 31 -151 -4z"/>
<path d="M1232 2094 c3 -50 18 -54 18 -5 0 23 -5 41 -10 41 -6 0 -10 -16 -8
-36z"/>
<path d="M1197 2113 c-11 -10 -8 -53 3 -53 6 0 10 14 10 30 0 31 -2 35 -13 23z"/>
<path d="M1133 2096 c-27 -15 -20 -26 18 -26 22 0 26 4 22 20 -6 23 -9 23 -40
6z"/>
<path d="M951 1971 c6 -13 9 -44 6 -67 -2 -24 -1 -44 4 -44 16 0 10 95 -7 116
-14 18 -15 18 -3 -5z"/>
<path d="M1389 1976 c-2 -2 -49 -7 -104 -11 -55 -4 -114 -8 -131 -10 -48 -4
-129 -44 -164 -80 l-33 -34 0 -178 c0 -133 -2 -155 -6 -88 -3 50 -9 79 -12 65
-2 -14 -8 30 -13 98 -4 68 -10 122 -12 119 -21 -21 -33 -142 -40 -402 -8 -308
-22 -338 -23 -50 -1 89 -5 165 -9 170 -8 9 -28 113 -35 175 -1 14 -2 -94 -3
-240 0 -146 -3 -283 -6 -305 -4 -22 -10 -68 -14 -102 -3 -35 -10 -60 -14 -58
-5 3 -7 -3 -5 -12 2 -10 4 -29 4 -43 1 -36 108 -135 184 -171 56 -26 77 -30
187 -34 201 -9 230 -14 230 -35 0 -29 11 -50 27 -50 8 0 13 -7 11 -17 -3 -15
-20 -19 -113 -26 -240 -17 -255 -22 -255 -95 0 -26 -7 -45 -20 -57 -21 -19
-19 -21 -35 30 -4 15 -77 55 -138 75 -29 9 -41 9 -52 0 -13 -11 -12 -16 5 -40
11 -16 20 -35 20 -43 0 -9 10 -23 22 -31 28 -20 17 -20 -44 -1 -50 15 -60 11
-30 -11 16 -13 16 -13 0 -14 -16 0 -78 -52 -78 -65 0 -3 72 -5 159 -5 144 0
160 2 164 18 4 16 5 16 6 0 1 -13 10 -17 39 -17 47 1 72 8 72 19 0 5 -6 7 -14
4 -8 -3 -17 6 -23 23 -12 33 -33 119 -33 134 0 20 30 -12 51 -54 16 -30 23
-36 33 -27 10 8 15 7 19 -4 4 -9 2 -18 -3 -21 -6 -4 -10 -22 -10 -41 0 -34 0
-34 46 -34 37 0 47 4 51 20 3 11 10 20 15 20 5 0 7 -4 4 -8 -2 -4 0 -14 5 -22
8 -11 12 -12 15 -3 4 8 13 9 28 3 13 -5 39 -5 59 0 25 5 37 4 40 -4 3 -7 13
-3 25 11 16 16 18 22 8 26 -7 3 -17 20 -21 39 -5 24 -9 28 -12 15 -4 -14 -10
-17 -26 -12 -12 4 -39 9 -59 12 -29 4 -38 10 -38 24 0 23 7 23 103 5 92 -18
135 -39 147 -72 15 -37 13 -41 -21 -42 -17 0 -34 -3 -37 -6 -3 -3 30 -6 74 -5
60 0 73 3 56 10 -13 5 -28 7 -33 3 -5 -3 -10 6 -10 20 -1 14 -2 31 -3 38 -1
16 59 45 132 62 l62 14 0 -68 c0 -41 5 -72 11 -76 9 -5 10 14 7 70 -3 42 -1
79 3 82 4 2 47 7 96 9 48 3 90 5 93 6 19 7 36 2 42 -11 4 -10 7 -7 7 11 2 58
-37 72 -237 84 -62 4 -115 11 -117 15 -7 12 44 50 66 50 14 0 19 7 19 29 l0
28 128 6 c291 14 354 31 453 124 57 53 64 70 47 109 -16 35 -32 36 -77 7 -19
-12 -37 -21 -39 -18 -2 2 -8 86 -12 187 l-8 183 1 -188 c2 -173 0 -189 -16
-199 -10 -5 -20 -8 -21 -6 -2 1 -8 55 -13 118 l-10 115 -1 -122 -2 -123 -27
-6 c-16 -3 -36 -8 -46 -11 -17 -4 -18 1 -14 65 2 38 7 73 10 78 3 5 1 31 -4
59 -7 36 -6 51 3 56 59 33 87 55 101 79 9 15 14 30 11 33 -3 3 4 24 16 47 19
36 21 56 18 129 -3 80 -6 90 -35 127 -48 60 -122 97 -194 95 -32 0 -69 -5 -83
-11 -15 -5 -26 -7 -26 -4 0 2 -17 -13 -39 -34 -59 -58 -87 -125 -96 -226 -2
-24 35 -102 70 -147 15 -19 9 -14 -13 10 -22 24 -44 58 -50 75 -8 24 -10 -9
-11 -136 l-1 -167 -75 1 -75 0 0 34 c0 19 -4 34 -9 34 -6 0 -7 -16 -4 -37 l6
-36 -48 6 c-26 4 -72 7 -102 7 l-54 0 4 108 c4 115 7 136 31 197 21 55 20 141
-3 190 -22 49 -86 109 -135 125 l-36 12 0 98 c0 54 -4 101 -8 104 -5 3 -7 -40
-4 -94 l5 -100 -29 0 c-16 0 -38 -3 -50 -6 -20 -5 -21 -1 -27 103 -3 59 -4
109 -2 111 1 2 57 6 124 9 l121 6 1 -104 c0 -57 4 -126 9 -154 4 -30 5 16 3
110 -5 144 -10 184 -24 171z m-245 -92 c3 -26 6 -74 6 -108 0 -59 -1 -62 -30
-73 l-30 -11 0 104 c0 67 -4 104 -11 104 -7 0 -10 -38 -8 -115 2 -112 2 -116
-24 -143 -14 -15 -33 -43 -41 -62 -15 -34 -15 -33 -16 66 0 56 -3 121 -6 146
-5 38 -3 48 20 75 23 27 87 60 122 62 6 1 14 -20 18 -45z m171 -348 c13 -37
-7 -48 -68 -41 -65 8 -79 14 -75 38 2 13 18 26 48 37 52 21 78 12 95 -34z
m753 28 c28 -8 40 -50 19 -71 -13 -13 -22 -13 -72 -2 -65 14 -79 33 -46 61 24
18 58 23 99 12z m-1031 -116 c-3 -8 -6 -5 -6 6 -1 11 2 17 5 13 3 -3 4 -12 1
-19z m780 -30 c-3 -8 -6 -5 -6 6 -1 11 2 17 5 13 3 -3 4 -12 1 -19z m26 -38
c6 0 35 -17 65 -37 52 -36 58 -38 129 -36 63 1 80 5 116 29 41 27 42 27 26 3
-9 -13 -38 -37 -64 -54 -68 -42 -146 -42 -207 1 -42 30 -89 87 -87 108 0 6 3
6 6 -1 2 -7 10 -13 16 -13z m-754 -30 c6 0 29 -9 49 -19 52 -27 120 -35 171
-21 62 17 62 4 0 -25 -56 -26 -119 -32 -163 -15 -35 13 -116 89 -116 108 0 12
5 11 23 -6 13 -12 29 -22 36 -22z m916 30 c8 -13 -5 -13 -25 0 -13 8 -13 10 2
10 9 0 20 -4 23 -10z m-85 -236 l0 -54 -34 0 c-18 0 -47 -3 -64 -6 l-31 -6 -3
128 -3 129 68 -69 c66 -68 67 -70 67 -122z m269 150 c-29 -33 -115 -74 -149
-73 -19 1 -16 3 13 10 49 12 107 42 131 68 11 12 21 21 24 21 3 0 -5 -12 -19
-26z m-269 -50 c0 -2 -9 0 -20 6 -11 6 -20 13 -20 16 0 2 9 0 20 -6 11 -6 20
-13 20 -16z m-530 -69 l0 -84 -57 2 c-64 2 -70 10 -58 73 7 40 36 60 63 44 15
-10 15 -10 -3 -6 -18 5 -20 0 -22 -38 -2 -41 0 -44 23 -42 22 1 24 5 24 49 0
26 -4 47 -10 47 -5 0 -2 9 7 20 10 11 21 20 25 20 5 0 8 -38 8 -85z m688 -18
c3 -34 1 -36 -35 -45 -21 -6 -53 -13 -70 -16 l-33 -5 0 52 0 53 68 -2 67 -1 3
-36z m-908 -31 c0 -2 -9 -2 -20 1 -11 3 -20 9 -20 15 0 5 9 4 20 -2 11 -6 20
-12 20 -14z m67 -13 c-3 -10 -5 -4 -5 12 0 17 2 24 5 18 2 -7 2 -21 0 -30z
m836 -110 l-1 -68 -49 -12 c-26 -6 -60 -12 -75 -12 -24 -1 -27 3 -31 37 l-4
37 -1 -41 c-2 -41 -2 -41 -48 -48 -85 -11 -96 -9 -92 19 2 13 -1 23 -7 22 -5
-1 -10 -13 -10 -27 -1 -24 -4 -25 -63 -28 -57 -3 -62 -1 -62 18 0 16 6 20 35
20 19 0 35 -4 35 -10 0 -16 14 -12 26 8 10 16 6 17 -52 17 -63 0 -64 0 -64
-27 0 -27 -2 -28 -54 -28 -97 0 -146 11 -146 31 0 14 7 19 26 19 19 0 25 -4
20 -15 -4 -11 1 -15 18 -15 23 0 41 22 29 34 -4 3 -22 6 -40 6 -46 0 -185 29
-201 42 -22 18 -6 20 40 4 67 -22 285 -36 409 -26 148 12 276 48 334 94 11 8
22 16 25 16 3 0 4 -30 3 -67z m-833 -9 c0 -8 -4 -12 -10 -9 -5 3 -10 10 -10
16 0 5 5 9 10 9 6 0 10 -7 10 -16z m-13 -66 c-3 -8 -6 -5 -6 6 -1 11 2 17 5
13 3 -3 4 -12 1 -19z m159 -35 c-7 -7 -76 9 -71 17 2 4 16 5 30 2 19 -3 25 0
26 14 0 15 2 14 10 -5 5 -13 8 -26 5 -28z m-86 21 c0 -2 -9 -4 -21 -4 -11 0
-18 4 -14 10 5 8 35 3 35 -6z m171 -291 c-8 -15 -10 -15 -11 -2 0 17 10 32 18
25 2 -3 -1 -13 -7 -23z m-211 -102 c-1 -23 -2 -24 -13 -9 -12 15 -14 15 -25
-3 -20 -31 -42 -24 -42 14 0 32 1 32 40 29 36 -4 40 -7 40 -31z m-40 -91 c0
-5 -7 -10 -15 -10 -8 0 -15 5 -15 10 0 6 7 10 15 10 8 0 15 -4 15 -10z"/>
<path d="M1538 923 c12 -2 32 -2 45 0 12 2 2 4 -23 4 -25 0 -35 -2 -22 -4z"/>
<path d="M1858 1968 c-10 -6 -8 -8 5 -8 12 0 17 -9 18 -27 2 -24 2 -25 6 -5 4
20 10 22 69 22 58 0 66 -2 74 -22 7 -19 9 -20 9 -5 1 16 6 17 34 12 57 -13
120 -57 146 -102 5 -10 13 -15 16 -11 11 11 -30 62 -73 91 -55 39 -269 78
-304 55z"/>
<path d="M1751 1944 c0 -11 3 -14 6 -6 3 7 2 16 -1 19 -3 4 -6 -2 -5 -13z"/>
<path d="M1893 1810 c0 -36 2 -50 4 -32 2 17 2 47 0 65 -2 17 -4 3 -4 -33z"/>
<path d="M1763 1790 c0 -41 2 -58 4 -37 2 20 2 54 0 75 -2 20 -4 3 -4 -38z"/>
<path d="M1617 1550 c2 -162 5 -299 6 -305 1 -6 -17 -9 -45 -8 l-48 2 0 -34 0
-35 75 0 75 0 0 35 c0 29 -4 35 -17 33 -20 -3 -24 37 -42 422 -8 165 -9 154
-4 -110z"/>
<path d="M2397 1615 c-4 -121 6 -612 11 -530 4 50 14 75 31 75 25 1 130 60
105 60 -29 0 -50 46 -30 66 22 21 26 18 26 -21 0 -19 4 -35 10 -35 12 0 40 53
40 77 0 10 7 31 15 47 16 31 22 92 6 67 -6 -9 -11 13 -16 65 -7 90 -13 114
-25 114 -4 0 -5 -38 -2 -85 3 -63 2 -85 -7 -85 -19 0 -55 21 -65 39 -8 13 -10
13 -15 -1 -6 -16 -8 -15 -30 1 -19 14 -25 30 -29 72 -6 83 21 165 43 129 3 -5
13 -10 22 -10 9 0 21 -7 27 -16 7 -9 18 -12 29 -8 14 5 10 10 -22 28 -22 11
-58 37 -79 56 l-39 35 -6 -140z"/>
<path d="M733 1720 c-39 -9 -139 -74 -153 -100 -5 -10 -10 -27 -9 -37 0 -10 5
-4 10 13 11 38 28 53 62 56 16 1 30 11 36 25 12 27 39 30 47 6 3 -10 10 -26
15 -35 11 -22 11 -76 -1 -103 -7 -15 -9 -10 -9 23 -1 26 -5 41 -11 37 -5 -3
-10 -31 -10 -61 0 -51 -1 -54 -25 -54 -16 0 -25 6 -25 16 0 12 -5 11 -20 -7
l-19 -24 -2 35 c-2 19 -2 44 -1 55 0 11 -2 27 -5 35 -8 18 -21 -57 -22 -122
-1 -25 -6 -48 -11 -50 -6 -2 -11 -35 -12 -75 -1 -80 17 -123 52 -123 12 0 24
-10 29 -24 10 -25 36 -36 88 -36 17 0 33 -6 35 -12 3 -7 9 45 15 117 10 123
-2 457 -17 454 -3 -1 -19 -4 -37 -9z"/>
<path d="M1773 1595 c0 -44 2 -61 4 -37 2 23 2 59 0 80 -2 20 -4 1 -4 -43z"/>
<path d="M2612 1530 c0 -19 2 -27 5 -17 2 9 2 25 0 35 -3 9 -5 1 -5 -18z"/>
<path d="M2138 1023 c7 -3 16 -2 19 1 4 3 -2 6 -13 5 -11 0 -14 -3 -6 -6z"/>
<path d="M2182 610 c-84 -39 -122 -67 -115 -85 3 -10 -1 -15 -12 -15 -9 0 -14
4 -11 9 3 5 -1 11 -9 15 -13 4 -15 -7 -14 -67 1 -45 4 -63 8 -47 10 36 48 40
57 5 6 -25 8 -26 83 -24 68 2 141 22 128 36 -3 2 -14 0 -25 -6 -12 -6 -29 -11
-39 -11 -15 0 -16 2 -3 10 12 8 13 12 2 19 -10 6 -5 13 20 29 39 26 35 27 -22
7 -53 -19 -55 -19 -39 1 10 12 10 20 2 34 -10 14 -7 22 14 41 27 26 58 79 46
79 -5 -1 -36 -14 -71 -30z"/>
<path d="M2313 593 c16 -17 48 -68 73 -114 49 -94 57 -100 19 -15 -28 63 -78
137 -103 150 -9 5 -4 -5 11 -21z"/>
<path d="M727 548 c-45 -56 -89 -127 -85 -138 2 -4 31 34 65 86 34 52 60 94
58 94 -2 0 -19 -19 -38 -42z"/>
<path d="M1797 490 c3 -11 7 -20 9 -20 2 0 4 9 4 20 0 11 -4 20 -9 20 -5 0 -7
-9 -4 -20z"/>
<path d="M1650 452 c0 -17 4 -34 10 -37 6 -4 7 6 3 27 -8 44 -13 48 -13 10z"/>
<path d="M1790 442 c0 -5 9 -17 19 -26 15 -13 20 -14 23 -4 3 7 -2 18 -11 25
-19 15 -31 16 -31 5z"/>
<path d="M1911 414 c0 -11 3 -14 6 -6 3 7 2 16 -1 19 -3 4 -6 -2 -5 -13z"/>
<path d="M2315 410 c-3 -5 3 -10 14 -10 12 0 21 5 21 10 0 6 -6 10 -14 10 -8
0 -18 -4 -21 -10z"/>
</g>
</svg>
